HIERARCHY
ROOT Hips
{
	OFFSET 0.000000 0.000000 0.000000
	CHANNELS 6 Xposition Yposition Zposition Zrotation Yrotation Xrotation 
	JOINT LowerBack
	{
		OFFSET 0.000000 0.000000 0.000000
		CHANNELS 3 Zrotation Yrotation Xrotation
		JOINT Spine
		{
			OFFSET 0.028270 2.035590 -0.193380
			CHANNELS 3 Zrotation Yrotation Xrotation
			JOINT Spine1
			{
				OFFSET 0.056720 2.048850 -0.042750
				CHANNELS 3 Zrotation Yrotation Xrotation
				JOINT Neck
				{
					OFFSET 0.000000 0.000000 0.000000
					CHANNELS 3 Zrotation Yrotation Xrotation
					JOINT Neck1
					{
						OFFSET -0.054170 1.746240 0.172020
						CHANNELS 3 Zrotation Yrotation Xrotation
						JOINT Head
						{
							OFFSET 0.104070 1.761360 -0.123970
							CHANNELS 3 Zrotation Yrotation Xrotation
							End Site
							{
								OFFSET 0.000000 0.000000 0.000000
							}
						}
					}
				}
				JOINT LeftShoulder
				{
					OFFSET 0.000000 0.000000 0.000000
					CHANNELS 3 Zrotation Yrotation Xrotation
					JOINT LeftArm
					{
						OFFSET 3.362410 1.200890 -0.311210
						CHANNELS 3 Zrotation Yrotation Xrotation
						JOINT LeftForeArm
						{
							OFFSET 4.983000 -0.000000 -0.000000
							CHANNELS 3 Zrotation Yrotation Xrotation
							JOINT LeftHand
							{
								OFFSET 3.483560 -0.000000 -0.000000
								CHANNELS 3 Zrotation Yrotation Xrotation
								JOINT LeftFingerBase
								{
									OFFSET 0.000000 0.000000 0.000000
									CHANNELS 3 Zrotation Yrotation Xrotation
									JOINT LeftHandIndex1
									{
										OFFSET 0.715260 -0.000000 -0.000000
										CHANNELS 3 Zrotation Yrotation Xrotation
										End Site
										{
											OFFSET 0.000000 0.000000 0.000000
										}
									}
								}
								JOINT LThumb
								{
									OFFSET 0.000000 0.000000 0.000000
									CHANNELS 3 Zrotation Yrotation Xrotation
									End Site
									{
										OFFSET 0.000000 0.000000 0.000000
									}
								}
							}
						}
					}
				}
				JOINT RightShoulder
				{
					OFFSET 0.000000 0.000000 0.000000
					CHANNELS 3 Zrotation Yrotation Xrotation
					JOINT RightArm
					{
						OFFSET -3.136600 1.374050 -0.404650
						CHANNELS 3 Zrotation Yrotation Xrotation
						JOINT RightForeArm
						{
							OFFSET -5.241900 -0.000000 -0.000000
							CHANNELS 3 Zrotation Yrotation Xrotation
							JOINT RightHand
							{
								OFFSET -3.444170 -0.000000 -0.000000
								CHANNELS 3 Zrotation Yrotation Xrotation
								JOINT RightFingerBase
								{
									OFFSET 0.000000 0.000000 0.000000
									CHANNELS 3 Zrotation Yrotation Xrotation
									JOINT RightHandIndex1
									{
										OFFSET -0.622530 -0.000000 -0.000000
										CHANNELS 3 Zrotation Yrotation Xrotation
										End Site
										{
											OFFSET 0.000000 0.000000 0.000000
										}
									}
								}
								JOINT RThumb
								{
									OFFSET 0.000000 0.000000 0.000000
									CHANNELS 3 Zrotation Yrotation Xrotation
									End Site
									{
										OFFSET 0.000000 0.000000 0.000000
									}
								}
							}
						}
					}
				}
			}
		}
	}
}
}
MOTION
Frames: 18
Frame Time: 0.008333
-11.667848 16.985161 -1.453271 175.658806 81.662006 177.617271 2.867097 -4.734529 -1.919121 0.192201 -5.031802 -2.505825 -5.666917 -4.960483 3.072220 9.710731 -21.136535 -10.917694 -2.418290 -0.145218 -0.811571 0.000000 0.000000 0.000000 0.550483 15.568987 0.515383 -44.587911 1.890672 0.008623 -1.647790 -60.852982 -0.006202 3.411593 0.047898 -0.001701 -0.146712 0.149107 -0.000000 0.000000 0.000000 0.000000 0.000000 0.000000 0.000000 15.829108 -19.225040 -0.070597 77.230938 -20.470289 -6.481073 4.443626 24.357378 0.003091 7.902051 1.854911 0.127292 0.074104 -0.000825 -0.000000 0.000000 0.000000 0.000000 0.000000 0.000000 0.000000 
-11.490889 16.991475 -1.431370 176.617311 81.546213 178.428178 3.028528 -4.686227 -1.925236 0.218858 -4.993456 -2.522639 -5.669568 -4.924978 3.034101 9.758190 -20.973912 -10.873509 -2.441371 -0.148194 -0.799397 0.000000 0.000000 0.000000 0.603666 15.490631 0.488676 -45.410107 2.537069 -0.130348 -1.680478 -60.469016 -0.006061 3.470551 0.035851 -0.002000 -0.147353 0.144761 -0.000000 0.000000 0.000000 0.000000 0.000000 0.000000 0.000000 15.881262 -19.016506 -0.071167 76.825244 -19.735212 -7.002529 4.452203 23.902481 0.003140 7.705940 1.730676 0.115797 0.076191 -0.001871 -0.000000 0.000000 0.000000 0.000000 0.000000 0.000000 0.000000 
-11.316499 16.997445 -1.408203 177.460841 81.436865 179.142741 3.163172 -4.639517 -1.921436 0.240005 -4.954630 -2.537535 -5.672989 -4.889210 2.996379 9.812886 -20.795416 -10.831936 -2.461638 -0.150829 -0.788010 0.000000 0.000000 0.000000 0.664205 15.413286 0.467161 -46.266070 3.192499 -0.279188 -1.717136 -60.025260 -0.005920 3.530902 0.031846 -0.002101 -0.148002 0.140156 -0.000000 0.000000 0.000000 0.000000 0.000000 0.000000 0.000000 15.923823 -18.793446 -0.068503 76.440639 -18.931616 -7.577782 4.454059 23.454059 0.003301 7.446620 1.638866 0.106105 0.078570 -0.003489 -0.000000 0.000000 0.000000 0.000000 0.000000 0.000000 0.000000 
-11.144808 17.002701 -1.384046 178.190012 81.327639 179.760796 3.272617 -4.594576 -1.907477 0.256108 -4.915571 -2.550191 -5.676782 -4.853385 2.959625 9.871536 -20.606375 -10.794222 -2.478711 -0.153074 -0.777746 0.000000 0.000000 0.000000 0.725222 15.338972 0.451370 -47.144146 3.841220 -0.424612 -1.757948 -59.518943 -0.005773 3.587602 0.036660 -0.001805 -0.148603 0.135271 -0.000000 0.000000 0.000000 0.000000 0.000000 0.000000 0.000000 15.953839 -18.561845 -0.063252 76.076028 -18.063077 -8.185883 4.448861 23.016514 0.003600 7.124157 1.599007 0.099113 0.081210 -0.005754 -0.000000 0.000000 0.000000 0.000000 0.000000 0.000000 0.000000 
-10.975864 17.006959 -1.359160 178.769772 81.214152 -179.757225 3.352726 -4.549638 -1.879238 0.265836 -4.874118 -2.560004 -5.682012 -4.815268 2.921714 9.933357 -20.405876 -10.759265 -2.494383 -0.155098 -0.768347 0.000000 0.000000 0.000000 0.785408 15.261217 0.441491 -48.035206 4.475033 -0.551835 -1.802871 -58.947682 -0.005604 3.639474 0.046447 -0.001412 -0.149131 0.130056 -0.000000 0.000000 0.000000 0.000000 0.000000 0.000000 0.000000 15.978876 -18.319101 -0.056159 75.727730 -17.154189 -8.809073 4.435277 22.627282 0.004006 6.746630 1.603261 0.094124 0.083990 -0.008603 -0.000000 0.000000 0.000000 0.000000 0.000000 0.000000 0.000000 
-10.809656 17.010111 -1.333879 179.203802 81.094162 -179.410073 3.405453 -4.503041 -1.836133 0.269562 -4.828685 -2.566637 -5.688162 -4.773234 2.883216 9.996181 -20.201052 -10.727837 -2.508588 -0.156888 -0.760046 0.000000 0.000000 0.000000 0.841850 15.181824 0.436832 -48.935971 5.078830 -0.649059 -1.852151 -58.304322 -0.005401 3.683752 0.059602 -0.000820 -0.149554 0.124508 -0.000000 0.000000 0.000000 0.000000 0.000000 0.000000 0.000000 15.999111 -18.072187 -0.047934 75.387781 -16.209683 -9.403486 4.413190 22.294089 0.004506 6.318388 1.658383 0.091239 0.086857 -0.011979 -0.000000 0.000000 0.000000 0.000000 0.000000 0.000000 0.000000 
-10.646120 17.012284 -1.308784 179.559392 80.966435 -179.129692 3.444846 -4.453234 -1.782787 0.270232 -4.778755 -2.571130 -5.694574 -4.726756 2.844404 10.053982 -19.992616 -10.698618 -2.521189 -0.158469 -0.752460 0.000000 0.000000 0.000000 0.885929 15.100281 0.436657 -49.844131 5.648515 -0.710388 -1.905835 -57.587315 -0.005167 3.718568 0.078381 -0.000033 -0.149840 0.118586 -0.000000 0.000000 0.000000 0.000000 0.000000 0.000000 0.000000 16.006455 -17.822070 -0.038540 75.053014 -15.227963 -9.967623 4.385517 21.998714 0.005107 5.858877 1.775084 0.090655 0.089760 -0.015875 -0.000000 0.000000 0.000000 0.000000 0.000000 0.000000 0.000000 
-10.485142 17.013578 -1.284087 179.795208 80.835354 -178.963038 3.464188 -4.396664 -1.715583 0.265859 -4.720218 -2.572829 -5.702253 -4.671665 2.804032 10.108914 -19.779398 -10.670067 -2.534290 -0.160044 -0.745253 0.000000 0.000000 0.000000 0.923165 15.016249 0.439760 -50.761767 6.174754 -0.727840 -1.964037 -56.786561 -0.004888 3.747197 0.094403 0.000752 -0.150011 0.112305 -0.000000 0.000000 0.000000 0.000000 0.000000 0.000000 0.000000 16.013817 -17.564981 -0.029091 74.711204 -14.231938 -10.463825 4.351559 21.776285 0.005734 5.380770 1.926290 0.090274 0.092572 -0.020065 -0.000000 0.000000 0.000000 0.000000 0.000000 0.000000 0.000000 
-10.326565 17.014411 -1.260303 179.988055 80.704319 -178.830654 3.478373 -4.331653 -1.642114 0.259690 -4.652571 -2.573376 -5.710167 -4.607494 2.762614 10.155177 -19.562192 -10.639932 -2.547448 -0.161630 -0.737757 0.000000 0.000000 0.000000 0.945072 14.928266 0.444801 -51.689933 6.664316 -0.704294 -2.026360 -55.904517 -0.004576 3.769768 0.112215 0.001533 -0.150041 0.105616 -0.000000 0.000000 0.000000 0.000000 0.000000 0.000000 0.000000 16.011585 -17.302226 -0.019143 74.357254 -13.213674 -10.891164 4.314901 21.595900 0.006385 4.902551 2.115355 0.090190 0.095275 -0.024497 -0.000000 0.000000 0.000000 0.000000 0.000000 0.000000 0.000000 
-10.170221 17.015083 -1.237459 -179.906108 80.581407 -178.779963 3.479239 -4.255554 -1.561327 0.249683 -4.572606 -2.572465 -5.718962 -4.531016 2.719878 10.195593 -19.337413 -10.606257 -2.562384 -0.163403 -0.729507 0.000000 0.000000 0.000000 0.958013 14.840833 0.450561 -52.632567 7.111883 -0.640411 -2.092852 -54.932177 -0.004217 3.790648 0.122176 0.002113 -0.149961 0.098576 -0.000000 0.000000 0.000000 0.000000 0.000000 0.000000 0.000000 16.011257 -17.028116 -0.009819 73.979222 -12.189853 -11.226581 4.275856 21.479186 0.006998 4.439615 2.313802 0.089208 0.097763 -0.028947 -0.000000 0.000000 0.000000 0.000000 0.000000 0.000000 0.000000 
-10.015873 17.016097 -1.215833 -179.824276 80.473175 -178.744072 3.477646 -4.167596 -1.481552 0.238434 -4.480509 -2.571715 -5.727339 -4.442481 2.676861 10.225906 -19.105622 -10.566717 -2.578270 -0.165342 -0.719796 0.000000 0.000000 0.000000 0.955336 14.755150 0.455711 -53.591015 7.529025 -0.544980 -2.162811 -53.874540 -0.003829 3.811753 0.129364 0.002588 -0.149757 0.091162 -0.000000 0.000000 0.000000 0.000000 0.000000 0.000000 0.000000 16.003706 -16.744158 -0.000787 73.571949 -11.149876 -11.467814 4.237528 21.392304 0.007577 4.003087 2.522195 0.087526 0.100062 -0.033353 -0.000000 0.000000 0.000000 0.000000 0.000000 0.000000 0.000000 
-9.863280 17.017798 -1.195275 -179.811068 80.387864 -178.768141 3.464596 -4.067060 -1.404163 0.223877 -4.375065 -2.571318 -5.736299 -4.340666 2.633334 10.249409 -18.855552 -10.518562 -2.597068 -0.167653 -0.707921 0.000000 0.000000 0.000000 0.942109 14.679736 0.460068 -54.566588 7.915263 -0.424658 -2.236312 -52.727472 -0.003392 3.834959 0.126534 0.002762 -0.149451 0.083432 -0.000000 0.000000 0.000000 0.000000 0.000000 0.000000 0.000000 15.999993 -16.437008 0.006635 73.128825 -10.113579 -11.624872 4.200627 21.355055 0.008075 3.612154 2.712904 0.084742 0.102054 -0.037547 -0.000000 0.000000 0.000000 0.000000 0.000000 0.000000 0.000000 
-9.712205 17.020536 -1.175826 -179.823948 80.331690 -178.805251 3.446380 -3.954468 -1.336371 0.208071 -4.257430 -2.572221 -5.743362 -4.226814 2.591948 10.263222 -18.597289 -10.461987 -2.616335 -0.170135 -0.693839 0.000000 0.000000 0.000000 0.913414 14.618605 0.462141 -55.559607 8.281533 -0.290624 -2.312341 -51.498540 -0.002929 3.862084 0.117829 0.002731 -0.149024 0.075427 -0.000000 0.000000 0.000000 0.000000 0.000000 0.000000 0.000000 15.988801 -16.119072 0.012887 72.644704 -9.060134 -11.670171 4.166934 21.330731 0.008516 3.261030 2.895262 0.081458 0.103857 -0.041492 -0.000000 0.000000 0.000000 0.000000 0.000000 0.000000 0.000000 
-9.562382 17.024558 -1.157191 -179.908073 80.309754 -178.899757 3.413542 -3.831173 -1.280433 0.188904 -4.128517 -2.575038 -5.750139 -4.101817 2.551444 10.270394 -18.310054 -10.393226 -2.638455 -0.173038 -0.676558 0.000000 0.000000 0.000000 0.873172 14.580663 0.463320 -56.566763 8.631241 -0.151719 -2.390984 -50.190671 -0.002428 3.890427 0.100797 0.002398 -0.148481 0.067196 -0.000000 0.000000 0.000000 0.000000 0.000000 0.000000 0.000000 15.979930 -15.767090 0.016614 72.121288 -8.020337 -11.647987 4.136865 21.348772 0.008871 2.973065 3.044468 0.077872 0.105313 -0.045091 -0.000000 0.000000 0.000000 0.000000 0.000000 0.000000 0.000000 
-9.413594 17.029931 -1.139289 179.966423 80.325098 -179.018025 3.369731 -3.698829 -1.241176 0.168255 -3.990357 -2.579721 -5.752963 -3.967785 2.516316 10.268891 -18.017164 -10.316379 -2.659162 -0.175945 -0.657092 0.000000 0.000000 0.000000 0.816380 14.572438 0.461904 -57.586897 8.970978 -0.017370 -2.471107 -48.813632 -0.001909 3.919510 0.080522 0.001962 -0.147798 0.058821 -0.000000 0.000000 0.000000 0.000000 0.000000 0.000000 0.000000 15.959287 -15.408240 0.018451 71.553891 -6.959868 -11.497061 4.110785 21.369133 0.009182 2.722884 3.182315 0.074286 0.106652 -0.048349 -0.000000 0.000000 0.000000 0.000000 0.000000 0.000000 0.000000 
-9.265605 17.036667 -1.121845 179.764251 80.378251 -179.194659 3.308413 -3.559832 -1.219866 0.144620 -3.845078 -2.586995 -5.753582 -3.826821 2.484183 10.260262 -17.693754 -10.227586 -2.680665 -0.179088 -0.634419 0.000000 0.000000 0.000000 0.745957 14.599586 0.460456 -58.613801 9.306661 0.104377 -2.552743 -47.376576 -0.001370 3.942442 0.058257 0.001424 -0.146965 0.050358 -0.000000 0.000000 0.000000 0.000000 0.000000 0.000000 0.000000 15.932413 -15.014925 0.017464 70.952009 -5.917750 -11.281411 4.088498 21.430207 0.009438 2.534012 3.290524 0.071299 0.107696 -0.051244 -0.000000 0.000000 0.000000 0.000000 0.000000 0.000000 0.000000 
-9.118281 17.044676 -1.104665 179.473532 80.467612 -179.441138 3.227052 -3.416721 -1.216831 0.118067 -3.695092 -2.596474 -5.750637 -3.681347 2.456758 10.244769 -17.345968 -10.129519 -2.701147 -0.182267 -0.609246 0.000000 0.000000 0.000000 0.660731 14.669026 0.459511 -59.642822 9.639162 0.208132 -2.635410 -45.890252 -0.000828 3.952941 0.038793 0.000983 -0.145966 0.041895 -0.000000 0.000000 0.000000 0.000000 0.000000 0.000000 0.000000 15.894302 -14.594315 0.013612 70.318021 -4.891920 -10.985866 4.069102 21.534030 0.009656 2.396808 3.376778 0.069011 0.108507 -0.053794 -0.000000 0.000000 0.000000 0.000000 0.000000 0.000000 0.000000 
-8.971494 17.053672 -1.087723 179.113132 80.590935 -179.738731 3.128906 -3.271300 -1.231224 0.090265 -3.542341 -2.606971 -5.740609 -3.533315 2.438192 10.221009 -17.004906 -10.029372 -2.716082 -0.185002 -0.583459 0.000000 0.000000 0.000000 0.556131 14.782568 0.457646 -60.671715 9.971314 0.288326 -2.718008 -44.368013 -0.000307 3.946723 0.027531 0.000837 -0.144784 0.033533 -0.000000 0.000000 0.000000 0.000000 0.000000 0.000000 0.000000 15.832356 -14.181346 0.007990 69.651311 -3.846657 -10.540671 4.051458 21.654391 0.009873 2.277228 3.464033 0.067122 0.109341 -0.056041 -0.000000 0.000000 0.000000 0.000000 0.000000 0.000000 0.000000 
